<svg id="图层_1" data-name="图层 1" xmlns="http://www.w3.org/2000/svg" viewBox="0 0 36 36"><defs><style>.cls-1{fill:#fff;}</style></defs><title>fax</title><path class="cls-1" d="M11.38,14.36h2.24V2H26.11l.24.3,4,4.91.18.22v6.93h1.67V34H11.38Zm3.38,2.29v4.84H25V16.65ZM22.42,30.4V32H25V30.4Zm-3.89,0V32h2.54V30.4Zm-3.77,0V32H17.3V30.4ZM22.42,28v1.56H25V28Zm-3.89,0v1.56h2.54V28Zm-3.77,0v1.56H17.3V28Zm7.66-2.48v1.57H25V25.51Zm-3.89,0v1.57h2.54V25.51Zm-3.77,0v1.57H17.3V25.51Zm7.66-2.41v1.56H25V23.1Zm-3.89,0v1.56h2.54V23.1Zm-3.77,0v1.56H17.3V23.1Zm2-10.8v1H27v-1Zm0-2.33v1H27V10Zm0-2.2v1h6.09v-1Zm0-2.33v1h6.09v-1Zm9.32-1-.15,1.16,1.8.86Zm2.88,4.37-4.23-2-.52-.25L24.26,6l.31-2.39H15.22V14.36H28.94Zm0,0M8.72,34H4.79a1,1,0,0,1-1-1V15.36a1,1,0,0,1,1-1H8.72a1,1,0,0,1,1,1V33A1,1,0,0,1,8.72,34Z"/></svg>