<svg id="图层_1" data-name="图层 1" xmlns="http://www.w3.org/2000/svg" viewBox="0 0 36 36"><defs><style>.cls-1{fill:#fff;}</style></defs><title>qq</title><path class="cls-1" d="M31.93,28.92c-.77.09-3-3.5-3-3.5a9.29,9.29,0,0,1-3.39,6.76c1.12.34,3.64,1.27,3,2.28-.48.82-8.33.53-10.6.27-2.27.26-10.11.55-10.6-.27-.6-1,1.92-1.94,3-2.28a9.29,9.29,0,0,1-3.39-6.76s-2.21,3.59-3,3.5c-.36,0-.82-2,.62-6.62.68-2.19,1.46-4,2.67-7C7.15,7.51,10.36,1,18,1S28.83,7.38,28.64,15.27c1.21,3,2,4.84,2.67,7,1.44,4.65,1,6.58.62,6.62Zm0,0"/></svg>