<svg id="图层_1" data-name="图层 1" xmlns="http://www.w3.org/2000/svg" xmlns:xlink="http://www.w3.org/1999/xlink" viewBox="0 0 34 34"><defs><style>.cls-1{fill:none;}.cls-2{clip-path:url(#clip-path);}.cls-3{fill:#fff;}</style><clipPath id="clip-path"><rect class="cls-1" x="1" y="3.95" width="34" height="28.1"/></clipPath></defs><title>wx</title><g class="cls-2"><path class="cls-3" d="M24.69,12.44a3.85,3.85,0,0,1,.49,0c-1-4.84-6-8.49-12-8.49C6.46,4,1,8.62,1,14.36a9.91,9.91,0,0,0,4.76,8.22L4.55,26.17l4-2.22a14.15,14.15,0,0,0,4.61.77c.33,0,.63,0,.93,0a8.12,8.12,0,0,1-.53-2.87c0-5.18,5-9.38,11.09-9.38ZM17.4,9.1a1.81,1.81,0,1,1-1.8,1.8,1.8,1.8,0,0,1,1.8-1.8ZM9,12.71a1.81,1.81,0,1,1,1.8-1.81A1.81,1.81,0,0,1,9,12.71Zm0,0"/></g><path class="cls-3" d="M35,21.84c0-4.82-4.61-8.73-10.29-8.73S14.4,17,14.4,21.84,19,30.57,24.69,30.57a11.74,11.74,0,0,0,3.4-.49L31.6,32l-1-3A8.46,8.46,0,0,0,35,21.84ZM21.46,20.59a1.45,1.45,0,1,1,1.45-1.45,1.45,1.45,0,0,1-1.45,1.45Zm6.72,0a1.45,1.45,0,1,1,1.45-1.45,1.45,1.45,0,0,1-1.45,1.45Zm0,0"/></svg>